<svg width="10" height="14" viewBox="0 0 10 14" fill="none" xmlns="http://www.w3.org/2000/svg">
<path fill-rule="evenodd" clip-rule="evenodd" d="M1.12113 5.88887C0.469292 5.88887 0.333252 6.01677 0.333252 6.62961V7.74072C0.333252 8.35356 0.469292 8.48146 1.12113 8.48146H2.69689V12.9259C2.69689 13.5387 2.83293 13.6666 3.48477 13.6666H5.06052C5.71236 13.6666 5.8484 13.5387 5.8484 12.9259V8.48146H7.61774C8.11211 8.48146 8.23949 8.39112 8.37531 7.94422L8.71297 6.83311C8.94562 6.06755 8.80226 5.88887 7.9554 5.88887H5.8484V4.03702C5.8484 3.62792 6.20115 3.29628 6.63628 3.29628H8.87871C9.53054 3.29628 9.66658 3.16838 9.66658 2.55554V1.07405C9.66658 0.461214 9.53054 0.333313 8.87871 0.333313H6.63628C4.46061 0.333313 2.69689 1.99152 2.69689 4.03702V5.88887H1.12113Z" fill="#0A0A58"/>
</svg>
