<svg width="16" height="16" viewBox="0 0 16 16" fill="none" xmlns="http://www.w3.org/2000/svg">
<path d="M2.0625 8C2.0625 5.20104 2.0625 3.80155 2.93203 2.93203C3.80155 2.0625 5.20104 2.0625 8 2.0625C10.799 2.0625 12.1984 2.0625 13.068 2.93203C13.9375 3.80155 13.9375 5.20104 13.9375 8C13.9375 10.799 13.9375 12.1984 13.068 13.068C12.1984 13.9375 10.799 13.9375 8 13.9375C5.20104 13.9375 3.80155 13.9375 2.93203 13.068C2.0625 12.1984 2.0625 10.799 2.0625 8Z" stroke="#0A0A58" stroke-width="1.5" stroke-linejoin="round"/>
<path d="M10.8125 8C10.8125 9.5533 9.5533 10.8125 8 10.8125C6.4467 10.8125 5.1875 9.5533 5.1875 8C5.1875 6.4467 6.4467 5.1875 8 5.1875C9.5533 5.1875 10.8125 6.4467 10.8125 8Z" stroke="#0A0A58" stroke-width="1.5"/>
<path d="M11.4424 4.5625L11.439 4.5625" stroke="#0A0A58" stroke-width="2" stroke-linecap="round" stroke-linejoin="round"/>
</svg>
