<svg width="32" height="32" viewBox="0 0 32 32" fill="none" xmlns="http://www.w3.org/2000/svg">
<g clip-path="url(#clip0_253_3693)">
<path d="M29.707 19.293L26.707 16.293C26.6142 16.2001 26.504 16.1264 26.3827 16.0762C26.2614 16.0259 26.1313 16 26 16C25.8687 16 25.7386 16.0259 25.6173 16.0762C25.496 16.1264 25.3858 16.2001 25.293 16.293L16 25.5859V30H20.4141L29.707 20.707C29.7999 20.6142 29.8736 20.504 29.9239 20.3827C29.9742 20.2614 30 20.1314 30 20C30 19.8687 29.9742 19.7387 29.9239 19.6174C29.8736 19.4961 29.7999 19.3858 29.707 19.293ZM19.5859 28H18V26.4141L23 21.4141L24.5859 23L19.5859 28ZM26 21.5859L24.4141 20L26 18.4141L27.5859 20L26 21.5859Z" fill="#0A0A58"/>
<path d="M18 14V18H20V14H18Z" fill="#0A0A58"/>
<path d="M14 12V18H16V12H14Z" fill="#0A0A58"/>
<path d="M10 8V18H12V8H10Z" fill="#0A0A58"/>
<path d="M12 30H6C5.46974 29.9994 4.96135 29.7886 4.5864 29.4136C4.21145 29.0386 4.00056 28.5303 4 28V4C4.00056 3.46974 4.21145 2.96135 4.5864 2.5864C4.96135 2.21145 5.46974 2.00056 6 2H22C22.5303 2.00056 23.0386 2.21145 23.4136 2.5864C23.7886 2.96135 23.9994 3.46974 24 4V14H22V4H6V28H12V30Z" fill="#0A0A58"/>
</g>
<defs>
<clipPath id="clip0_253_3693">
<rect width="32" height="32" fill="white"/>
</clipPath>
</defs>
</svg>
