<svg width="32" height="32" viewBox="0 0 32 32" fill="none" xmlns="http://www.w3.org/2000/svg">
<g clip-path="url(#clip0_253_3671)">
<path d="M25.3943 24.0001C25.9916 22.5663 26.1517 20.9879 25.8545 19.4633C25.5572 17.9387 24.8158 16.5361 23.7236 15.4317C24.0242 14.6745 24.0812 13.8425 23.8869 13.0514C23.6925 12.2603 23.2564 11.5494 22.6392 11.0177L25.4151 8.2418C25.7896 7.8664 25.9999 7.35778 25.9999 6.8275C25.9999 6.29723 25.7896 5.78861 25.4151 5.4132L22.5869 2.585C22.2115 2.21039 21.7029 2 21.1726 2C20.6423 2 20.1337 2.21039 19.7583 2.585L6.5859 15.7574C6.21143 16.1328 6.00114 16.6414 6.00114 17.1717C6.00114 17.702 6.21143 18.2106 6.5859 18.586L9.4141 21.4142C9.78949 21.7887 10.2981 21.9991 10.8284 21.9991C11.3587 21.9991 11.8673 21.7887 12.2427 21.4142L17.0176 16.6388C17.6947 17.4223 18.6534 17.9071 19.6857 17.9881C20.718 18.0691 21.7405 17.7397 22.5315 17.0714C23.3535 18.012 23.8584 19.1876 23.9744 20.4313C24.0903 21.6751 23.8115 22.9238 23.1775 24.0001H16V28.0001H4V30.0001H28V24.0001H25.3943ZM10.8281 20.0001L8 17.1715L9.8787 15.2931L12.707 18.1212L10.8281 20.0001ZM16 14.0001C16.0015 14.2528 16.027 14.5047 16.0762 14.7525L14.1211 16.7071L11.2927 13.879L21.1727 3.999L24.001 6.8272L20.7522 10.0763C20.1736 9.96132 19.5766 9.9765 19.0046 10.1208C18.4325 10.265 17.8997 10.5347 17.4448 10.9103C16.9899 11.2859 16.6243 11.7581 16.3744 12.2925C16.1245 12.8269 15.9966 13.4102 16 14.0001ZM20 16.0001C19.6044 16.0001 19.2178 15.8828 18.8889 15.663C18.56 15.4433 18.3036 15.1309 18.1522 14.7655C18.0009 14.4 17.9613 13.9979 18.0384 13.6099C18.1156 13.222 18.3061 12.8656 18.5858 12.5859C18.8655 12.3062 19.2219 12.1157 19.6098 12.0385C19.9978 11.9614 20.3999 12.001 20.7654 12.1523C21.1308 12.3037 21.4432 12.5601 21.6629 12.889C21.8827 13.2179 22 13.6045 22 14.0001C21.9994 14.5304 21.7885 15.0387 21.4135 15.4136C21.0386 15.7886 20.5302 15.9995 20 16.0001ZM26 28.0001H18V26.0001H26V28.0001Z" fill="#0A0A58"/>
</g>
<defs>
<clipPath id="clip0_253_3671">
<rect width="32" height="32" fill="white"/>
</clipPath>
</defs>
</svg>
