<svg width="20" height="20" viewBox="0 0 20 20" fill="none" xmlns="http://www.w3.org/2000/svg">
<g clip-path="url(#clip0_188_1233)">
<path d="M16.875 17.5V5.625H15V2.5H16.25V1.25H12.5V2.5H13.75V5.625H11.875V17.5H9.375V10H7.5V6.875H8.75V5.625H5V6.875H6.25V10H4.375V17.5H2.5V1.25H1.25V17.5C1.25 17.8315 1.3817 18.1495 1.61612 18.3839C1.85054 18.6183 2.16848 18.75 2.5 18.75H18.75V17.5H16.875ZM8.125 17.5H5.625V11.25H8.125V17.5ZM13.125 6.875H15.625V17.5H13.125V6.875Z" fill="black"/>
</g>
<defs>
<clipPath id="clip0_188_1233">
<rect width="20" height="20" fill="white"/>
</clipPath>
</defs>
</svg>
