<svg width="21" height="18" viewBox="0 0 21 18" fill="none" xmlns="http://www.w3.org/2000/svg">
<path d="M10.8085 0.147977C10.6857 0.0520832 10.5342 0 10.3784 0C10.2225 0 10.0711 0.0520832 9.94821 0.147977L0 7.90572L0.860333 8.99382L2.07693 8.04522V16.6154C2.07768 16.9824 2.2238 17.3341 2.4833 17.5936C2.74281 17.8531 3.09455 17.9993 3.46155 18H17.3077C17.6747 17.9993 18.0265 17.8532 18.2861 17.5937C18.5456 17.3342 18.6917 16.9824 18.6924 16.6154V8.05152L19.9089 8.99998L20.7693 7.91181L10.8085 0.147977ZM11.7693 16.6154H9.00002V11.0769H11.7693V16.6154ZM13.1539 16.6154V11.0769C13.1535 10.7098 13.0074 10.3579 12.7479 10.0983C12.4883 9.83873 12.1364 9.69271 11.7693 9.69229H9.00002C8.63291 9.69266 8.28094 9.83865 8.02135 10.0982C7.76177 10.3578 7.61577 10.7098 7.6154 11.0769V16.6154H3.46155V6.96563L10.3846 1.57254L17.3077 6.9729V16.6154H13.1539Z" fill="black"/>
</svg>
