<svg width="20" height="20" viewBox="0 0 20 20" fill="none" xmlns="http://www.w3.org/2000/svg">
<g clip-path="url(#clip0_185_1287)">
<path d="M12.5 9.48777L10.8812 7.86914L10 8.75039L12.5 11.2504L16.25 7.50039L15.3688 6.61914L12.5 9.48777Z" fill="black"/>
<path d="M6.25 11.25H5V12.5H6.25V11.25Z" fill="black"/>
<path d="M7.5 5.625H4.375V6.875H6.875V8.125H5V10H6.25V9.375H7.5C7.84512 9.375 8.125 9.09512 8.125 8.75V6.25C8.125 5.90487 7.84512 5.625 7.5 5.625Z" fill="black"/>
<path d="M11.0849 18.75L10 18.125L12.5 13.75H16.25C16.9419 13.75 17.5 13.1921 17.5 12.5V5C17.5 4.30788 16.9419 3.75 16.25 3.75H3.75C3.05806 3.75 2.5 4.30788 2.5 5V12.5C2.5 13.1921 3.05806 13.75 3.75 13.75H9.375V15H3.75C2.36919 15 1.25 13.8813 1.25 12.5V5C1.25 3.61819 2.36919 2.5 3.75 2.5H16.25C17.6308 2.5 18.75 3.61819 18.75 5V12.5C18.75 13.8813 17.6308 15 16.25 15H13.2279L11.0849 18.75Z" fill="black"/>
</g>
<defs>
<clipPath id="clip0_185_1287">
<rect width="20" height="20" fill="white"/>
</clipPath>
</defs>
</svg>
